<svg id="Layer_1" data-name="Layer 1" xmlns="http://www.w3.org/2000/svg" viewBox="0 0 160.79 127.29"><defs><style>.cls-1{fill:#2aaece;}.cls-2{fill:#13409a;}</style></defs><path class="cls-1" d="M128.54,0c5.84,3.2,10,7.78,11.69,14.32a7.67,7.67,0,0,1,.22.92c.87,6-2.91,9.17-8.5,6.79-7.22-3.07-11.32-8.77-12.39-16.52A6.18,6.18,0,0,1,121.82,0Z"/><path class="cls-1" d="M158.92,57.93l-18.15-17.7c0,4.46.26,8.38-.06,12.27-.55,6.82,3.64,11.28,7.48,15.94a159,159,0,0,0,11.28,12.37A3.86,3.86,0,0,1,160.78,84c-.08,3,0,6,0,9.07a3.23,3.23,0,0,1-2.1-1.31C152.44,85.86,146.21,80,140,74.12c-9.53-9.11-21.66-10.45-32.5-3-3,2.06-5,2.45-8.06.41a25.47,25.47,0,0,0-11.25-3.78c-6-.69-10.85,1.19-14.39,6.15-4.49,6.29-9,12.56-13.43,18.91-1,1.51-1.63,1.41-2.77.11C52.5,87,46.75,81.74,41.05,76.39c-10.15-9.54-20.94-7.75-30.63-2.51C8.28,75,6.32,76.53,3.91,78.12c0-3.8,0-7.27,0-10.73,0-1.21,1-1.31,1.74-1.67a64.09,64.09,0,0,0,12.5-7.93C23.77,53.24,24,47.2,23.37,40.84c-.58-6-2.66-7.4-8.59-5.72a33.59,33.59,0,0,0-8.51,3.76c-1.67,1-2.74.88-4.12-.5-2.85-2.83-2.94-2.76.16-5.2A34.15,34.15,0,0,1,29.24,25.8a23,23,0,0,1,8.1,2.8C43.45,32,49.21,35.81,53.92,41.05a25.56,25.56,0,0,1,3.38,5.09,37.43,37.43,0,0,1,5-7.91c9.35-10.52,20.73-15.81,34.83-12a13.49,13.49,0,0,0,10.63-1c9.84-4.82,20-4.55,29.68.77a63.18,63.18,0,0,1,20.07,17.84A6.65,6.65,0,0,1,159,48.25C158.85,51.39,158.92,54.53,158.92,57.93Zm-74-14.69v5.28A3.33,3.33,0,0,0,86,51.28q8.15,7.38,16.2,14.85c1,1,1.79,1.11,2.93,0,4.76-4.7,9.62-9.29,14.45-13.92a7.61,7.61,0,0,0,2.58-5.47c0-4.37-.34-8.73-.5-13.09-.08-2.24-1.2-2.81-3.29-2.43a49.41,49.41,0,0,0-14.52,5.32c-.75.39-1.36.95-2.38.38-4.77-2.62-9.92-2.6-15.13-2-1.21.14-1.9.49-1.73,1.94C84.81,38.73,84.79,40.65,84.91,43.24Zm-14.71.42c-4.07,4.54-7.67,8.46-11.15,12.48-1.11,1.28-1.76,1.25-3,.07-3.84-3.72-7.81-7.3-11.75-10.9-.56-.5-1-1.56-1.88-1.16s-.56,1.42-.57,2.19c-.09,4.14-.27,8.28-.12,12.41a13.48,13.48,0,0,0,3.71,9.34c3.94,4,8.08,7.71,12.06,11.63,1.23,1.2,1.75,1.06,2.49-.46,2.72-5.58,5.36-11.23,8.42-16.62C71.84,56.66,70.24,50.51,70.2,43.66Z"/><path class="cls-2" d="M81.4,126.09H62c.09-.24.12-.47.19-.49,4.9-.93,4.94-.93,4.88-6,0-1.89.84-4.35-.36-5.51s-3.64-.28-5.54-.35-3.84,0-5.75-.15c-1.41-.1-1.77.46-1.71,1.77.1,2.15,0,4.3,0,6.45,0,2.79.67,3.41,3.57,3.6.52,0,1.12-.21,1.52.36-1.37.69-16.75.86-19.36.22,0-.57.45-.55.83-.58,3.86-.32,4.21-.69,4.21-4.45q0-8,0-16c0-3.67-.17-3.87-3.78-4.4-.37-.06-.75-.1-1.34-.18,1.83-.69,17.26-.76,19.5-.17-.07.11-.13.32-.22.33-4.93.87-4.93.87-4.93,6s0,5.27,5.36,5.27c2.16,0,4.32,0,6.47,0,1.12,0,1.59-.33,1.57-1.48,0-2.07-.08-4.15,0-6.21.14-2.37-1-3.32-3.23-3.49a2.66,2.66,0,0,1-2.26-.65H81.56c-.57,1-1.47.6-2.15.69-2.08.26-3.08,1.26-3.06,3.46.06,5.57,0,11.15,0,16.73,0,3.79.26,4.16,4.06,4.63C80.71,125.51,81.17,125.38,81.4,126.09Z"/><path class="cls-2" d="M112.61,114.11c5.09,3.81,8.13,9.46,14.41,11.86-2.21.87-4.2,0-6.1.33-4.64.79-8.06-1-11-4.52-2-2.38-4.42-4.37-6.6-6.59a2.47,2.47,0,0,0-2.54-.91c-1.22.36-.59,1.47-.63,2.23-.1,1.75,0,3.51,0,5.26,0,2.83.46,3.33,3.24,3.58a2.64,2.64,0,0,1,1.81.48c-1.9.6-17.3.63-19.37,0,.2-.18.34-.43.5-.45,4.61-.55,4.59-.54,4.61-5.23q0-7.64.15-15.28c0-3.36-.47-3.94-4-4.29-.42,0-.95.14-1.19-.46.1-.11.19-.29.28-.29,8.94,0,17.89-.57,26.81.48a11.33,11.33,0,0,1,5.11,1.92c3.92,2.69,3.78,7.25-.27,9.78C116.39,113,114.65,113.25,112.61,114.11Zm-12.47-7c0,1.43,0,2.86,0,4.28,0,.77.05,1.4,1.11,1.39a22,22,0,0,0,6.62-.65,4.8,4.8,0,0,0,3.59-5c0-2.7-1.16-4.41-3.73-5.12a18.87,18.87,0,0,0-4.23-.62c-3.35-.16-3.35-.11-3.35,3.12Z"/><path class="cls-2" d="M144.28,125.57l1.15.07c0,.28,0,.55,0,.83H130.86c0-.25,0-.5,0-.75,2.08-.49,3-1.66,2.91-3.91-.11-5.42.05-10.83.07-16.24,0-4.19-.24-4.42-4.37-4.74-.3,0-.64,0-.79-.43.41-.84,1.23-.45,1.85-.45,9.27,0,18.54,0,27.81-.06,1.63,0,2.34.37,2.17,2.1-.13,1.5,0,3,0,4.53,0,.47,0,1-.62,1.08-.51.07-.7-.3-.81-.69-1.17-4.22-4.62-4.87-8.24-5.12-2.15-.15-4.32,0-6.47-.1-1,0-1.42.19-1.4,1.26q.09,4.07,0,8.13c0,1.11.5,1.27,1.45,1.3,3.73.12,5.83-1.15,7.48-4.69.2-.43.28-1,.89-.91s.49.73.49,1.19q0,5.38,0,10.75c0,.46.14,1.1-.43,1.23-.79.19-.79-.55-1-1a6.92,6.92,0,0,0-7.55-4.85c-.62,0-1.33-.11-1.33.89,0,2.86,0,5.73,0,8.59,0,.8.78,1.17,1,1.85l.09.19Z"/><path class="cls-2" d="M35.74,120.52c.34,1.4.17,2.28-1,3.08-7.47,5.27-22.9,4.83-30-.93-6-4.91-6.29-12.43-.36-17.48C11,99.6,18.76,98.67,27,100.08c1.49.25,2.95.7,4.42,1s2.87.58,3.75-1.08c.19-.37.5-.65,1-.48s.35.67.35,1q0,3.47,0,6.93c0,.44.2,1-.45,1.19s-.76-.31-1-.74a14.16,14.16,0,0,0-18.74-5c-4.3,2.21-6.44,7-5.59,12.39.88,5.71,3.57,8.65,8.78,9.61A18.57,18.57,0,0,0,33.57,122C34.23,121.56,34.88,121.11,35.74,120.52Z"/><path class="cls-1" d="M21.16,9.37c0-7,4.56-9.9,9.82-6.73a18.78,18.78,0,0,1,9.55,16.15c.18,6.12-4.31,8.76-9.61,5.71A19.39,19.39,0,0,1,21.16,9.37Z"/><path class="cls-1" d="M84,13.82c0,5.52-4.86,12.12-10.14,13.93-3.21,1.1-5.57-.48-5.81-3.87C67.7,18.47,72.77,11,78,9.3,81.7,8.08,84.06,9.85,84,13.82Z"/><path class="cls-1" d="M130.84,125.73c0,.25,0,.5,0,.75-.82.15-1.67.49-2.46-.47A2.28,2.28,0,0,1,130.84,125.73Z"/><path class="cls-1" d="M145.41,126.47c0-.28,0-.55,0-.83a5,5,0,0,1,2.88.38C147.31,127,146.34,126.62,145.41,126.47Z"/><path class="cls-1" d="M144.28,125.57h-.22l-.09-.19A.24.24,0,0,1,144.28,125.57Z"/></svg>